<?xml version="1.0" encoding="UTF-8"?>
<svg width="24" height="24" viewBox="0 0 24 24" fill="none" xmlns="http://www.w3.org/2000/svg">
  <path d="M21 12.79C20.8427 14.4922 20.2039 16.1144 19.1583 17.4448C18.1127 18.7752 16.7046 19.7559 15.0957 20.2575C13.4868 20.7592 11.7549 20.7592 10.146 20.2575C8.53706 19.7559 7.12896 18.7752 6.08335 17.4448C5.03774 16.1144 4.39895 14.4922 4.24164 12.79C4.08433 11.0879 4.41529 9.368 5.19348 7.8829C5.97167 6.3978 7.15958 5.21637 8.58991 4.50101C10.0202 3.78566 11.62 3.57056 13.1719 3.88599C14.7237 4.20143 16.1474 5.03241 17.2426 6.26677C18.3379 7.50113 19.0528 9.07957 19.28 10.79" stroke="#6B7280" stroke-width="2" stroke-linecap="round" stroke-linejoin="round"/>
</svg>
