<?xml version="1.0" encoding="UTF-8"?>
<svg width="24" height="24" viewBox="0 0 24 24" fill="none" xmlns="http://www.w3.org/2000/svg">
  <path d="M12 15C13.6569 15 15 13.6569 15 12C15 10.3431 13.6569 9 12 9C10.3431 9 9 10.3431 9 12C9 13.6569 10.3431 15 12 15Z" fill="#3B82F6"/>
  <path d="M19.4 15C19.2669 15.3016 19.2279 15.6362 19.2885 15.9606C19.3492 16.285 19.507 16.5843 19.74 16.82C19.973 17.0557 20.2711 17.2172 20.5946 17.2827C20.918 17.3482 21.2515 17.3145 21.55 17.186C21.65 17.15 21.75 17.1 21.84 17.04C21.94 16.97 22.03 16.9 22.11 16.82C22.3 16.66 22.45 16.46 22.55 16.24C22.64 16.02 22.7 15.78 22.7 15.54C22.7 15.3 22.64 15.06 22.55 14.84C22.45 14.62 22.3 14.42 22.11 14.26C21.92 14.1 21.7 13.98 21.46 13.91C21.22 13.84 20.97 13.82 20.72 13.85C20.47 13.88 20.23 13.97 20.02 14.11C19.81 14.25 19.63 14.44 19.5 14.66L19.4 14.91V15Z" fill="#3B82F6"/>
  <path d="M4.60002 15C4.7331 15.3016 4.77213 15.6362 4.71148 15.9606C4.65083 16.285 4.49305 16.5843 4.26002 16.82C4.02699 17.0557 3.7289 17.2172 3.40545 17.2827C3.082 17.3482 2.74851 17.3145 2.45002 17.186C2.35002 17.15 2.25002 17.1 2.16002 17.04C2.06002 16.97 1.97002 16.9 1.89002 16.82C1.70002 16.66 1.55002 16.46 1.45002 16.24C1.36002 16.02 1.30002 15.78 1.30002 15.54C1.30002 15.3 1.36002 15.06 1.45002 14.84C1.55002 14.62 1.70002 14.42 1.89002 14.26C2.08002 14.1 2.30002 13.98 2.54002 13.91C2.78002 13.84 3.03002 13.82 3.28002 13.85C3.53002 13.88 3.77002 13.97 3.98002 14.11C4.19002 14.25 4.37002 14.44 4.50002 14.66L4.60002 14.91V15Z" fill="#3B82F6"/>
  <path d="M12 5.3C12.3 5.3 12.59 5.39 12.83 5.56C13.07 5.73 13.25 5.97 13.34 6.24L13.39 6.5V9.5C13.39 9.9 13.23 10.28 12.95 10.56C12.67 10.84 12.29 11 11.89 11C11.49 11 11.11 10.84 10.83 10.56C10.55 10.28 10.39 9.9 10.39 9.5V6.5C10.39 6.1 10.55 5.72 10.83 5.44C11.11 5.16 11.49 5 11.89 5H12V5.3Z" fill="#3B82F6"/>
  <path d="M12 22.7C11.7 22.7 11.41 22.61 11.17 22.44C10.93 22.27 10.75 22.03 10.66 21.76L10.61 21.5V18.5C10.61 18.1 10.77 17.72 11.05 17.44C11.33 17.16 11.71 17 12.11 17C12.51 17 12.89 17.16 13.17 17.44C13.45 17.72 13.61 18.1 13.61 18.5V21.5C13.61 21.9 13.45 22.28 13.17 22.56C12.89 22.84 12.51 23 12.11 23H12V22.7Z" fill="#3B82F6"/>
  <path d="M18.5 12.61H15.5C15.1 12.61 14.72 12.45 14.44 12.17C14.16 11.89 14 11.51 14 11.11C14 10.71 14.16 10.33 14.44 10.05C14.72 9.77 15.1 9.61 15.5 9.61H18.5C18.9 9.61 19.28 9.77 19.56 10.05C19.84 10.33 20 10.71 20 11.11C20 11.51 19.84 11.89 19.56 12.17C19.28 12.45 18.9 12.61 18.5 12.61Z" fill="#3B82F6"/>
  <path d="M8.5 12.61H5.5C5.1 12.61 4.72 12.45 4.44 12.17C4.16 11.89 4 11.51 4 11.11C4 10.71 4.16 10.33 4.44 10.05C4.72 9.77 5.1 9.61 5.5 9.61H8.5C8.9 9.61 9.28 9.77 9.56 10.05C9.84 10.33 10 10.71 10 11.11C10 11.51 9.84 11.89 9.56 12.17C9.28 12.45 8.9 12.61 8.5 12.61Z" fill="#3B82F6"/>
</svg>
